<?xml version="1.0" encoding="UTF-8" standalone="no"?>
<svg
   version="1.1"
   width="7.1175733cm"
   height="2.6819861cm"
   viewBox="0 0 28021.942 10559"
   id="svg1069"
   sodipodi:docname="fig1.svg"
   inkscape:version="1.1 (c4e8f9e, 2021-05-24)"
   xmlns:inkscape="http://www.inkscape.org/namespaces/inkscape"
   xmlns:sodipodi="http://sodipodi.sourceforge.net/DTD/sodipodi-0.dtd"
   xmlns="http://www.w3.org/2000/svg"
   xmlns:svg="http://www.w3.org/2000/svg"
   xmlns:rdf="http://www.w3.org/1999/02/22-rdf-syntax-ns#"
   xmlns:cc="http://creativecommons.org/ns#"
   xmlns:dc="http://purl.org/dc/elements/1.1/">
  <title
     id="title395">Figure 1</title>
  <defs
     id="defs1073" />
  <sodipodi:namedview
     id="namedview1071"
     pagecolor="#ffffff"
     bordercolor="#999999"
     borderopacity="1"
     inkscape:pageshadow="0"
     inkscape:pageopacity="0"
     inkscape:pagecheckerboard="0"
     inkscape:document-units="cm"
     showgrid="false"
     fit-margin-top="0"
     fit-margin-left="0"
     fit-margin-right="0"
     fit-margin-bottom="0"
     inkscape:zoom="1.2891557"
     inkscape:cx="144.66833"
     inkscape:cy="126.43934"
     inkscape:window-width="1312"
     inkscape:window-height="762"
     inkscape:window-x="135"
     inkscape:window-y="56"
     inkscape:window-maximized="0"
     inkscape:current-layer="svg1069" />
  <desc
     id="desc799">Picture generated by Eeschema-SVG </desc>
  <g
     style="fill:#000000;fill-opacity:1;stroke:#000000;stroke-linecap:round;stroke-linejoin:round;stroke-opacity:1"
     id="g801"
     transform="translate(-6528.0575,-8491)" />
  <g
     style="fill:#000000;fill-opacity:0;stroke:#000000;stroke-width:60;stroke-linecap:round;stroke-linejoin:round;stroke-opacity:1"
     id="g815"
     transform="translate(-6528.0575,-8491)">
    <g
       id="g803" />
    <g
       style="fill:#840000;fill-opacity:0;stroke:#840000;stroke-width:60;stroke-linecap:round;stroke-linejoin:round;stroke-opacity:1"
       id="g805" />
    <g
       style="fill:#840000;fill-opacity:0;stroke:#840000;stroke-width:100;stroke-linecap:round;stroke-linejoin:round;stroke-opacity:1"
       id="g809">
      <path
         style="fill:none;fill-opacity:0;stroke:#840000;stroke-width:100;stroke-linecap:round;stroke-linejoin:round;stroke-opacity:1"
         d="m 32900,16000 h 1600"
         id="path807" />
    </g>
    <g
       style="fill:#840000;fill-opacity:1;stroke:#840000;stroke-width:60;stroke-linecap:round;stroke-linejoin:round;stroke-opacity:1"
       id="g813">
      <path
         style="fill:#840000;fill-opacity:1;fill-rule:evenodd;stroke:#840000;stroke-width:60;stroke-linecap:round;stroke-linejoin:round;stroke-opacity:1"
         d="m 32500,16000 700,-200 v 400 z"
         id="path811" />
    </g>
  </g>
  <g
     style="fill:#840000;fill-opacity:1;stroke:#840000;stroke-width:60;stroke-linecap:round;stroke-linejoin:round;stroke-opacity:1"
     id="g845"
     transform="translate(-6528.0575,-8491)">
    <g
       id="g817" />
    <g
       style="fill:#840000;fill-opacity:0;stroke:#840000;stroke-width:100;stroke-linecap:round;stroke-linejoin:round;stroke-opacity:1"
       id="g821">
      <rect
         x="21000"
         y="9600"
         width="2000"
         height="800"
         rx="0.000000"
         id="rect819" />
    </g>
    <g
       style="fill:#840000;fill-opacity:0;stroke:#840000;stroke-width:60;stroke-linecap:round;stroke-linejoin:round;stroke-opacity:1"
       id="g827">
      <path
         d="m 21000,10000 h -500"
         id="path823" />
      <path
         d="m 23000,10000 h 500"
         id="path825" />
    </g>
    <g
       style="fill:#008484;fill-opacity:0;stroke:#008484;stroke-width:60;stroke-linecap:round;stroke-linejoin:round;stroke-opacity:1"
       id="g843">
      <text
         x="22000"
         y="9150"
         textLength="942.91339"
         font-size="800px"
         lengthAdjust="spacingAndGlyphs"
         text-anchor="middle"
         opacity="0"
         id="text829">Rf</text>
      <g
         class="stroked-text"
         id="g841">
        <desc
           id="desc831">Rf</desc>
        <path
           d="m 22014,9121 -200,-286"
           id="path833" />
        <path
           d="m 21671,9121 v -600 h 229 l 57,29 28,28 29,57 v 86 l -29,57 -28,29 -57,28 h -229"
           id="path835" />
        <path
           d="m 22185,8721 h 229"
           id="path837" />
        <path
           d="m 22271,9121 v -514 l 29,-57 57,-29 h 57"
           id="path839" />
      </g>
    </g>
  </g>
  <g
     style="fill:#008484;fill-opacity:0;stroke:#008484;stroke-width:60;stroke-linecap:round;stroke-linejoin:round;stroke-opacity:1"
     id="g917"
     transform="translate(-6528.0575,-8491)">
    <g
       id="g847" />
    <g
       style="fill:#840000;fill-opacity:0;stroke:#840000;stroke-width:60;stroke-linecap:round;stroke-linejoin:round;stroke-opacity:1"
       id="g849" />
    <g
       style="fill:#ffffc2;fill-opacity:0;stroke:#ffffc2;stroke-width:60;stroke-linecap:round;stroke-linejoin:round;stroke-opacity:1"
       id="g851" />
    <g
       style="fill:#ffffc2;fill-opacity:0.6;stroke:#ffffc2;stroke-width:0.03937;stroke-linecap:round;stroke-linejoin:round;stroke-opacity:1"
       id="g855">
      <rect
         x="19000"
         y="13000"
         width="6000"
         height="6000"
         rx="0.000000"
         id="rect853" />
    </g>
    <g
       style="fill:#840000;fill-opacity:0.6;stroke:#840000;stroke-width:0.03937;stroke-linecap:round;stroke-linejoin:round;stroke-opacity:1"
       id="g857" />
    <g
       style="fill:#840000;fill-opacity:0;stroke:#840000;stroke-width:100;stroke-linecap:round;stroke-linejoin:round;stroke-opacity:1"
       id="g863">
      <rect
         x="19000"
         y="13000"
         width="6000"
         height="6000"
         rx="0.000000"
         id="rect859" />
      <rect
         x="19000"
         y="13000"
         width="6000"
         height="6000"
         rx="0.000000"
         id="rect861" />
    </g>
    <g
       style="fill:#840000;fill-opacity:0;stroke:#840000;stroke-width:60;stroke-linecap:round;stroke-linejoin:round;stroke-opacity:1"
       id="g867">
      <path
         d="M 19000,16000 H 18000"
         id="path865" />
    </g>
    <g
       style="fill:#008484;fill-opacity:0;stroke:#008484;stroke-width:60;stroke-linecap:round;stroke-linejoin:round;stroke-opacity:1"
       id="g879">
      <text
         x="19200"
         y="16250"
         textLength="821.88977"
         font-size="666.654px"
         lengthAdjust="spacingAndGlyphs"
         text-anchor="start"
         opacity="0"
         id="text869">IN</text>
      <g
         class="stroked-text"
         id="g877">
        <desc
           id="desc871">IN</desc>
        <path
           d="m 19349,16226 v -500"
           id="path873" />
        <path
           d="m 19587,16226 v -500 l 285,500 v -500"
           id="path875" />
      </g>
    </g>
    <g
       style="fill:#840000;fill-opacity:0;stroke:#840000;stroke-width:60;stroke-linecap:round;stroke-linejoin:round;stroke-opacity:1"
       id="g883">
      <path
         d="m 25000,16000 h 1000"
         id="path881" />
    </g>
    <g
       style="fill:#008484;fill-opacity:0;stroke:#008484;stroke-width:60;stroke-linecap:round;stroke-linejoin:round;stroke-opacity:1"
       id="g915">
      <text
         x="24800"
         y="16250"
         textLength="1488.5826"
         font-size="666.654px"
         lengthAdjust="spacingAndGlyphs"
         text-anchor="end"
         opacity="0"
         id="text885">OUT</text>
      <g
         class="stroked-text"
         id="g897">
        <desc
           id="desc887">OUT</desc>
        <path
           d="m 23555,15726 h 95 l 48,24 48,47 24,95 v 167 l -24,95 -48,48 -48,24 h -95 l -47,-24 -48,-48 -24,-95 v -167 l 24,-95 48,-47 47,-24"
           id="path889" />
        <path
           d="m 23984,15726 v 404 l 24,48 23,24 48,24 h 95 l 48,-24 24,-24 24,-48 v -404"
           id="path891" />
        <path
           d="m 24436,15726 h 286"
           id="path893" />
        <path
           d="m 24579,16226 v -500"
           id="path895" />
      </g>
      <text
         x="22000"
         y="12499.961"
         textLength="1940.9448"
         font-size="666.654px"
         lengthAdjust="spacingAndGlyphs"
         text-anchor="middle"
         opacity="0"
         id="text899">CCCT</text>
      <g
         class="stroked-text"
         id="g913">
        <desc
           id="desc901">CCCT</desc>
        <path
           d="m 21464,12428 -24,24 -71,24 h -48 l -71,-24 -48,-48 -24,-47 -24,-96 v -71 l 24,-95 24,-48 48,-48 71,-23 h 48 l 71,23 24,24"
           id="path903" />
        <path
           d="m 21964,12428 -24,24 -71,24 h -48 l -71,-24 -48,-48 -24,-47 -24,-96 v -71 l 24,-95 24,-48 48,-48 71,-23 h 48 l 71,23 24,24"
           id="path905" />
        <path
           d="m 22464,12428 -24,24 -71,24 h -48 l -71,-24 -48,-48 -24,-47 -24,-96 v -71 l 24,-95 24,-48 48,-48 71,-23 h 48 l 71,23 24,24"
           id="path907" />
        <path
           d="m 22607,11976 h 285"
           id="path909" />
        <path
           d="m 22750,12476 v -500"
           id="path911" />
      </g>
    </g>
  </g>
  <g
     style="fill:#008484;fill-opacity:0;stroke:#008484;stroke-width:60;stroke-linecap:round;stroke-linejoin:round;stroke-opacity:1"
     id="g931"
     transform="translate(-6528.0575,-8491)">
    <g
       id="g919" />
    <g
       style="fill:#840000;fill-opacity:0;stroke:#840000;stroke-width:60;stroke-linecap:round;stroke-linejoin:round;stroke-opacity:1"
       id="g921" />
    <g
       style="fill:#840000;fill-opacity:0;stroke:#840000;stroke-width:100;stroke-linecap:round;stroke-linejoin:round;stroke-opacity:1"
       id="g925">
      <path
         style="fill:none;fill-opacity:0;stroke:#840000;stroke-width:100;stroke-linecap:round;stroke-linejoin:round;stroke-opacity:1"
         d="M 15500,13100 V 11500"
         id="path923" />
    </g>
    <g
       style="fill:#840000;fill-opacity:1;stroke:#840000;stroke-width:60;stroke-linecap:round;stroke-linejoin:round;stroke-opacity:1"
       id="g929">
      <path
         style="fill:#840000;fill-opacity:1;fill-rule:evenodd;stroke:#840000;stroke-width:60;stroke-linecap:round;stroke-linejoin:round;stroke-opacity:1"
         d="m 15500,13500 -200,-700 h 400 z"
         id="path927" />
    </g>
  </g>
  <g
     style="fill:#840000;fill-opacity:1;stroke:#840000;stroke-width:60;stroke-linecap:round;stroke-linejoin:round;stroke-opacity:1"
     id="g943"
     transform="translate(-6528.0575,-8491)">
    <g
       id="g933" />
    <g
       style="fill:#840000;fill-opacity:0;stroke:#840000;stroke-width:100;stroke-linecap:round;stroke-linejoin:round;stroke-opacity:1"
       id="g937">
      <path
         style="fill:none;fill-opacity:0;stroke:#840000;stroke-width:100;stroke-linecap:round;stroke-linejoin:round;stroke-opacity:1"
         d="M 11600,16000 H 10000"
         id="path935" />
    </g>
    <g
       style="fill:#840000;fill-opacity:1;stroke:#840000;stroke-width:60;stroke-linecap:round;stroke-linejoin:round;stroke-opacity:1"
       id="g941">
      <path
         style="fill:#840000;fill-opacity:1;fill-rule:evenodd;stroke:#840000;stroke-width:60;stroke-linecap:round;stroke-linejoin:round;stroke-opacity:1"
         d="m 12000,16000 -700,200 v -400 z"
         id="path939" />
    </g>
  </g>
  <g
     style="fill:#840000;fill-opacity:1;stroke:#840000;stroke-width:75;stroke-linecap:round;stroke-linejoin:round;stroke-opacity:1"
     id="g945"
     transform="translate(-6528.0575,-8491)" />
  <g
     style="fill:#840000;fill-opacity:1;stroke:#840000;stroke-width:60;stroke-linecap:round;stroke-linejoin:round;stroke-opacity:1"
     id="g947"
     transform="translate(-6528.0575,-8491)" />
  <g
     style="fill:#0000c2;fill-opacity:0;stroke:#0000c2;stroke-width:60;stroke-linecap:round;stroke-linejoin:round;stroke-opacity:1"
     id="g961"
     transform="translate(-6528.0575,-8491)">
    <text
       x="32500"
       y="14877.008"
       textLength="1202.874"
       font-size="800px"
       lengthAdjust="spacingAndGlyphs"
       text-anchor="start"
       opacity="0"
       id="text949">Ro</text>
    <g
       class="stroked-text"
       id="g959">
      <desc
         id="desc951">Ro</desc>
      <path
         d="m 33015,14848 -200,-286"
         id="path953" />
      <path
         d="m 32672,14848 v -600 h 229 l 57,29 29,28 28,57 v 86 l -28,57 -29,29 -57,28 h -229"
         id="path955" />
      <path
         d="m 33358,14848 -57,-29 -29,-28 -28,-57 v -172 l 28,-57 29,-28 57,-29 h 86 l 57,29 29,28 28,57 v 172 l -28,57 -29,28 -57,29 h -86"
         id="path957" />
    </g>
  </g>
  <g
     style="fill:#0000c2;fill-opacity:0;stroke:#0000c2;stroke-width:73.7402;stroke-linecap:round;stroke-linejoin:round;stroke-opacity:1"
     id="g963"
     transform="translate(-6528.0575,-8491)" />
  <g
     style="fill:#0000c2;fill-opacity:0;stroke:#0000c2;stroke-width:60;stroke-linecap:round;stroke-linejoin:round;stroke-opacity:1"
     id="g991"
     transform="translate(-6528.0575,-8491)">
    <text
       x="20500"
       y="17879.055"
       textLength="3319.0552"
       font-size="786.654px"
       lengthAdjust="spacingAndGlyphs"
       text-anchor="start"
       opacity="0"
       id="text965">Gain=B</text>
    <g
       class="stroked-text"
       id="g989">
      <desc
         id="desc967">Gain=B</desc>
      <path
         d="m 20979,17289 -56,-29 h -84 l -85,29 -56,56 -28,56 -28,112 v 85 l 28,112 28,56 56,56 85,28 h 56 l 84,-28 28,-28 v -196 h -112"
         id="path969" />
      <path
         d="m 21513,17850 v -309 l -28,-56 -56,-28 h -113 l -56,28"
         id="path971" />
      <path
         d="m 21513,17822 -56,28 h -141 l -56,-28 -28,-56 v -56 l 28,-56 56,-28 h 141 l 56,-28"
         id="path973" />
      <path
         d="m 21794,17850 v -393"
         id="path975" />
      <path
         d="m 21794,17260 -28,29 28,28 28,-28 -28,-29 v 57"
         id="path977" />
      <path
         d="m 22075,17457 v 393"
         id="path979" />
      <path
         d="m 22075,17513 28,-28 56,-28 h 84 l 57,28 28,56 v 309"
         id="path981" />
      <path
         d="m 22609,17541 h 449"
         id="path983" />
      <path
         d="m 23058,17710 h -449"
         id="path985" />
      <path
         d="m 23536,17541 84,29 28,28 28,56 v 84 l -28,56 -28,28 -56,28 h -225 v -590 h 197 l 56,29 28,28 28,56 v 56 l -28,56 -28,28 -56,28 h -197"
         id="path987" />
    </g>
  </g>
  <g
     style="fill:#0000c2;fill-opacity:0;stroke:#0000c2;stroke-width:73.7402;stroke-linecap:round;stroke-linejoin:round;stroke-opacity:1"
     id="g993"
     transform="translate(-6528.0575,-8491)" />
  <g
     style="fill:#0000c2;fill-opacity:0;stroke:#0000c2;stroke-width:60;stroke-linecap:round;stroke-linejoin:round;stroke-opacity:1"
     id="g1043"
     transform="translate(-6528.0575,-8491)">
    <text
       x="6500"
       y="14879.055"
       textLength="5960"
       font-size="786.654px"
       lengthAdjust="spacingAndGlyphs"
       text-anchor="start"
       opacity="0"
       id="text995">Input Current</text>
    <g
       class="stroked-text"
       id="g1041">
      <desc
         id="desc997">Input Current</desc>
      <path
         d="m 6670,14850 v -590"
         id="path999" />
      <path
         d="m 6951,14457 v 393"
         id="path1001" />
      <path
         d="m 6951,14513 28,-28 56,-28 h 85 l 56,28 28,56 v 309"
         id="path1003" />
      <path
         d="m 7485,14457 v 590"
         id="path1005" />
      <path
         d="m 7485,14485 56,-28 h 112 l 57,28 28,28 28,57 v 168 l -28,56 -28,28 -57,28 h -112 l -56,-28"
         id="path1007" />
      <path
         d="m 8271,14457 v 393"
         id="path1009" />
      <path
         d="m 8019,14457 v 309 l 28,56 56,28 h 84 l 56,-28 28,-28"
         id="path1011" />
      <path
         d="m 8468,14457 h 225"
         id="path1013" />
      <path
         d="m 8552,14260 v 506 l 28,56 57,28 h 56"
         id="path1015" />
      <path
         d="m 9676,14794 -28,28 -84,28 h -56 l -85,-28 -56,-56 -28,-56 -28,-112 v -85 l 28,-112 28,-56 56,-56 85,-29 h 56 l 84,29 28,28"
         id="path1017" />
      <path
         d="m 10182,14457 v 393"
         id="path1019" />
      <path
         d="m 9929,14457 v 309 l 28,56 56,28 h 85 l 56,-28 28,-28"
         id="path1021" />
      <path
         d="m 10463,14850 v -393"
         id="path1023" />
      <path
         d="m 10463,14570 28,-57 28,-28 56,-28 h 56"
         id="path1025" />
      <path
         d="m 10828,14850 v -393"
         id="path1027" />
      <path
         d="m 10828,14570 28,-57 28,-28 56,-28 h 57"
         id="path1029" />
      <path
         d="m 11418,14822 -56,28 h -112 l -57,-28 -28,-56 v -225 l 28,-56 57,-28 h 112 l 56,28 28,56 v 57 l -281,56"
         id="path1031" />
      <path
         d="m 11699,14457 v 393"
         id="path1033" />
      <path
         d="m 11699,14513 28,-28 56,-28 h 85 l 56,28 28,56 v 309"
         id="path1035" />
      <path
         d="m 12149,14457 h 224"
         id="path1037" />
      <path
         d="m 12233,14260 v 506 l 28,56 56,28 h 56"
         id="path1039" />
    </g>
  </g>
  <g
     style="fill:#008400;fill-opacity:0;stroke:#008400;stroke-width:60;stroke-linecap:round;stroke-linejoin:round;stroke-opacity:1"
     id="g1061"
     transform="translate(-6528.0575,-8491)">
    <path
       d="m 29000,10000 v 6000"
       id="path1045" />
    <path
       d="m 29000,16000 h 3000"
       id="path1047" />
    <path
       d="m 26000,16000 h 3000"
       id="path1049" />
    <path
       d="m 23500,10000 h 5500"
       id="path1051" />
    <path
       d="M 20500,10000 H 15500"
       id="path1053" />
    <path
       d="M 18000,16000 H 15500"
       id="path1055" />
    <path
       d="m 15500,10000 v 6000"
       id="path1057" />
    <path
       d="M 15500,16000 H 9500"
       id="path1059" />
  </g>
  <g
     style="fill:#008400;fill-opacity:1;stroke:#008400;stroke-width:60;stroke-linecap:round;stroke-linejoin:round;stroke-opacity:1"
     id="g1067"
     transform="translate(-6528.0575,-8491)">
    <circle
       cx="29000"
       cy="16000"
       r="180"
       id="circle1063" />
    <circle
       cx="15500"
       cy="16000"
       r="180"
       id="circle1065" />
  </g>
  <metadata
     id="metadata1155">
    <rdf:RDF>
      <cc:Work
         rdf:about="">
        <dc:title>Audio Amplifier Design Figure 1</dc:title>
        <dc:creator>
          <cc:Agent>
            <dc:title>John Howard, www.robinet.co.uk</dc:title>
          </cc:Agent>
        </dc:creator>
        <cc:license
           rdf:resource="http://creativecommons.org/licenses/by-nc-sa/4.0/" />
      </cc:Work>
      <cc:License
         rdf:about="http://creativecommons.org/licenses/by-nc-sa/4.0/">
        <cc:permits
           rdf:resource="http://creativecommons.org/ns#Reproduction" />
        <cc:permits
           rdf:resource="http://creativecommons.org/ns#Distribution" />
        <cc:requires
           rdf:resource="http://creativecommons.org/ns#Notice" />
        <cc:requires
           rdf:resource="http://creativecommons.org/ns#Attribution" />
        <cc:prohibits
           rdf:resource="http://creativecommons.org/ns#CommercialUse" />
        <cc:permits
           rdf:resource="http://creativecommons.org/ns#DerivativeWorks" />
        <cc:requires
           rdf:resource="http://creativecommons.org/ns#ShareAlike" />
      </cc:License>
    </rdf:RDF>
  </metadata>
</svg>
