<?xml version="1.0" encoding="UTF-8" standalone="no"?>
<svg
   version="1.1"
   width="7.1039619cm"
   height="4.4653201cm"
   viewBox="0 0 27968.354 17580"
   id="svg7403"
   sodipodi:docname="fig7.svg"
   inkscape:version="1.1 (c4e8f9e, 2021-05-24)"
   xmlns:inkscape="http://www.inkscape.org/namespaces/inkscape"
   xmlns:sodipodi="http://sodipodi.sourceforge.net/DTD/sodipodi-0.dtd"
   xmlns="http://www.w3.org/2000/svg"
   xmlns:svg="http://www.w3.org/2000/svg"
   xmlns:rdf="http://www.w3.org/1999/02/22-rdf-syntax-ns#"
   xmlns:cc="http://creativecommons.org/ns#"
   xmlns:dc="http://purl.org/dc/elements/1.1/">
  <defs
     id="defs7407" />
  <sodipodi:namedview
     id="namedview7405"
     pagecolor="#ffffff"
     bordercolor="#999999"
     borderopacity="1"
     inkscape:pageshadow="0"
     inkscape:pageopacity="0"
     inkscape:pagecheckerboard="0"
     inkscape:document-units="cm"
     showgrid="false"
     fit-margin-top="0"
     fit-margin-left="0"
     fit-margin-right="0"
     fit-margin-bottom="0"
     inkscape:zoom="1.2987763"
     inkscape:cx="121.268"
     inkscape:cy="140.90187"
     inkscape:window-width="1296"
     inkscape:window-height="762"
     inkscape:window-x="0"
     inkscape:window-y="25"
     inkscape:window-maximized="0"
     inkscape:current-layer="svg7403" />
  <title
     id="title6931">SVG Picture created as Fig7.svg date 2022/02/15 15:15:23 </title>
  <desc
     id="desc6933">Picture generated by Eeschema-SVG </desc>
  <g
     style="fill:#000000;fill-opacity:1;stroke:#000000;stroke-linecap:round;stroke-linejoin:round;stroke-opacity:1"
     id="g6935"
     transform="translate(-8973.7779,-6950)" />
  <g
     style="fill:#000000;fill-opacity:0;stroke:#000000;stroke-width:60;stroke-linecap:round;stroke-linejoin:round;stroke-opacity:1"
     id="g6949"
     transform="translate(-8973.7779,-6950)">
    <g
       id="g6937" />
    <g
       style="fill:#840000;fill-opacity:0;stroke:#840000;stroke-width:60;stroke-linecap:round;stroke-linejoin:round;stroke-opacity:1"
       id="g6947">
      <path
         style="fill:none;fill-opacity:0;stroke:#840000;stroke-width:60;stroke-linecap:round;stroke-linejoin:round;stroke-opacity:1"
         d="m 31250,24250 h 500"
         id="path6939" />
      <path
         style="fill:none;fill-opacity:0;stroke:#840000;stroke-width:60;stroke-linecap:round;stroke-linejoin:round;stroke-opacity:1"
         d="m 31450,24500 h 100"
         id="path6941" />
      <path
         style="fill:none;fill-opacity:0;stroke:#840000;stroke-width:60;stroke-linecap:round;stroke-linejoin:round;stroke-opacity:1"
         d="m 31500,24000 v -500"
         id="path6943" />
      <path
         style="fill:none;fill-opacity:0;stroke:#840000;stroke-width:60;stroke-linecap:round;stroke-linejoin:round;stroke-opacity:1"
         d="M 32000,24000 H 31000"
         id="path6945" />
    </g>
  </g>
  <g
     style="fill:#840000;fill-opacity:0;stroke:#840000;stroke-width:60;stroke-linecap:round;stroke-linejoin:round;stroke-opacity:1"
     id="g6977"
     transform="translate(-8973.7779,-6950)">
    <g
       id="g6951" />
    <g
       style="fill:#840000;fill-opacity:0;stroke:#840000;stroke-width:100;stroke-linecap:round;stroke-linejoin:round;stroke-opacity:1"
       id="g6955">
      <rect
         x="31100"
         y="18500"
         width="800"
         height="2000"
         rx="0.000000"
         id="rect6953" />
    </g>
    <g
       style="fill:#840000;fill-opacity:0;stroke:#840000;stroke-width:60;stroke-linecap:round;stroke-linejoin:round;stroke-opacity:1"
       id="g6961">
      <path
         d="m 31500,18500 v -500"
         id="path6957" />
      <path
         d="m 31500,20500 v 500"
         id="path6959" />
    </g>
    <g
       style="fill:#008484;fill-opacity:0;stroke:#008484;stroke-width:60;stroke-linecap:round;stroke-linejoin:round;stroke-opacity:1"
       id="g6975">
      <text
         x="32643.15"
         y="19749.961"
         textLength="823.85828"
         font-size="666.654px"
         lengthAdjust="spacingAndGlyphs"
         text-anchor="middle"
         opacity="0"
         id="text6963">R_{L}</text>
      <g
         class="stroked-text"
         id="g6973">
        <desc
           id="desc6965">R_{L}</desc>
        <path
           d="m 32635,19726 -166,-238"
           id="path6967" />
        <path
           d="m 32350,19726 v -500 h 190 l 48,23 24,24 23,48 v 71 l -23,48 -24,24 -48,24 h -190"
           id="path6969" />
        <path
           d="m 33016,19780 h -190 v -400"
           id="path6971" />
      </g>
    </g>
  </g>
  <g
     style="fill:#008484;fill-opacity:0;stroke:#008484;stroke-width:60;stroke-linecap:round;stroke-linejoin:round;stroke-opacity:1"
     id="g6991"
     transform="translate(-8973.7779,-6950)">
    <g
       id="g6979" />
    <g
       style="fill:#840000;fill-opacity:0;stroke:#840000;stroke-width:60;stroke-linecap:round;stroke-linejoin:round;stroke-opacity:1"
       id="g6981" />
    <g
       style="fill:#840000;fill-opacity:0;stroke:#840000;stroke-width:100;stroke-linecap:round;stroke-linejoin:round;stroke-opacity:1"
       id="g6985">
      <path
         style="fill:none;fill-opacity:0;stroke:#840000;stroke-width:100;stroke-linecap:round;stroke-linejoin:round;stroke-opacity:1"
         d="M 29000,12600 V 11200"
         id="path6983" />
    </g>
    <g
       style="fill:#840000;fill-opacity:1;stroke:#840000;stroke-width:60;stroke-linecap:round;stroke-linejoin:round;stroke-opacity:1"
       id="g6989">
      <path
         style="fill:#840000;fill-opacity:1;fill-rule:evenodd;stroke:#840000;stroke-width:60;stroke-linecap:round;stroke-linejoin:round;stroke-opacity:1"
         d="m 29000,12800 200,-500 h -400 z"
         id="path6987" />
    </g>
  </g>
  <g
     style="fill:#840000;fill-opacity:1;stroke:#840000;stroke-width:60;stroke-linecap:round;stroke-linejoin:round;stroke-opacity:1"
     id="g7003"
     transform="translate(-8973.7779,-6950)">
    <g
       id="g6993" />
    <g
       style="fill:#840000;fill-opacity:0;stroke:#840000;stroke-width:100;stroke-linecap:round;stroke-linejoin:round;stroke-opacity:1"
       id="g6997">
      <path
         style="fill:none;fill-opacity:0;stroke:#840000;stroke-width:100;stroke-linecap:round;stroke-linejoin:round;stroke-opacity:1"
         d="m 24900,16000 h 1400"
         id="path6995" />
    </g>
    <g
       style="fill:#840000;fill-opacity:1;stroke:#840000;stroke-width:60;stroke-linecap:round;stroke-linejoin:round;stroke-opacity:1"
       id="g7001">
      <path
         style="fill:#840000;fill-opacity:1;fill-rule:evenodd;stroke:#840000;stroke-width:60;stroke-linecap:round;stroke-linejoin:round;stroke-opacity:1"
         d="m 24700,16000 500,200 v -400 z"
         id="path6999" />
    </g>
  </g>
  <g
     style="fill:#840000;fill-opacity:1;stroke:#840000;stroke-width:60;stroke-linecap:round;stroke-linejoin:round;stroke-opacity:1"
     id="g7033"
     transform="translate(-8973.7779,-6950)">
    <g
       id="g7005" />
    <g
       style="fill:#840000;fill-opacity:0;stroke:#840000;stroke-width:100;stroke-linecap:round;stroke-linejoin:round;stroke-opacity:1"
       id="g7009">
      <rect
         x="21000"
         y="15600"
         width="2000"
         height="800"
         rx="0.000000"
         id="rect7007" />
    </g>
    <g
       style="fill:#840000;fill-opacity:0;stroke:#840000;stroke-width:60;stroke-linecap:round;stroke-linejoin:round;stroke-opacity:1"
       id="g7015">
      <path
         d="m 21000,16000 h -500"
         id="path7011" />
      <path
         d="m 23000,16000 h 500"
         id="path7013" />
    </g>
    <g
       style="fill:#008484;fill-opacity:0;stroke:#008484;stroke-width:60;stroke-linecap:round;stroke-linejoin:round;stroke-opacity:1"
       id="g7031">
      <text
         x="21999.961"
         y="17750"
         textLength="845.70868"
         font-size="666.654px"
         lengthAdjust="spacingAndGlyphs"
         text-anchor="middle"
         opacity="0"
         id="text7017">Rf</text>
      <g
         class="stroked-text"
         id="g7029">
        <desc
           id="desc7019">Rf</desc>
        <path
           d="m 22011,17726 -166,-238"
           id="path7021" />
        <path
           d="m 21726,17726 v -500 h 190 l 48,24 24,23 23,48 v 71 l -23,48 -24,24 -48,24 h -190"
           id="path7023" />
        <path
           d="m 22154,17392 h 191"
           id="path7025" />
        <path
           d="m 22226,17726 v -429 l 23,-47 48,-24 h 48"
           id="path7027" />
      </g>
    </g>
  </g>
  <g
     style="fill:#008484;fill-opacity:0;stroke:#008484;stroke-width:60;stroke-linecap:round;stroke-linejoin:round;stroke-opacity:1"
     id="g7047"
     transform="translate(-8973.7779,-6950)">
    <g
       id="g7035" />
    <g
       style="fill:#840000;fill-opacity:0;stroke:#840000;stroke-width:60;stroke-linecap:round;stroke-linejoin:round;stroke-opacity:1"
       id="g7037" />
    <g
       style="fill:#840000;fill-opacity:0;stroke:#840000;stroke-width:100;stroke-linecap:round;stroke-linejoin:round;stroke-opacity:1"
       id="g7041">
      <path
         style="fill:none;fill-opacity:0;stroke:#840000;stroke-width:100;stroke-linecap:round;stroke-linejoin:round;stroke-opacity:1"
         d="M 15500,12600 V 11200"
         id="path7039" />
    </g>
    <g
       style="fill:#840000;fill-opacity:1;stroke:#840000;stroke-width:60;stroke-linecap:round;stroke-linejoin:round;stroke-opacity:1"
       id="g7045">
      <path
         style="fill:#840000;fill-opacity:1;fill-rule:evenodd;stroke:#840000;stroke-width:60;stroke-linecap:round;stroke-linejoin:round;stroke-opacity:1"
         d="m 15500,12800 200,-500 h -400 z"
         id="path7043" />
    </g>
  </g>
  <g
     style="fill:#840000;fill-opacity:1;stroke:#840000;stroke-width:60;stroke-linecap:round;stroke-linejoin:round;stroke-opacity:1"
     id="g7191"
     transform="translate(-8973.7779,-6950)">
    <g
       id="g7049" />
    <g
       style="fill:#ffffc2;fill-opacity:1;stroke:#ffffc2;stroke-width:60;stroke-linecap:round;stroke-linejoin:round;stroke-opacity:1"
       id="g7051" />
    <g
       style="fill:#ffffc2;fill-opacity:0.6;stroke:#ffffc2;stroke-width:0.03937;stroke-linecap:round;stroke-linejoin:round;stroke-opacity:1"
       id="g7055">
      <rect
         x="19000"
         y="7000"
         width="6000"
         height="6000"
         rx="0.000000"
         id="rect7053" />
    </g>
    <g
       style="fill:#840000;fill-opacity:0.6;stroke:#840000;stroke-width:0.03937;stroke-linecap:round;stroke-linejoin:round;stroke-opacity:1"
       id="g7057" />
    <g
       style="fill:#840000;fill-opacity:0;stroke:#840000;stroke-width:100;stroke-linecap:round;stroke-linejoin:round;stroke-opacity:1"
       id="g7063">
      <rect
         x="19000"
         y="7000"
         width="6000"
         height="6000"
         rx="0.000000"
         id="rect7059" />
      <rect
         x="19000"
         y="7000"
         width="6000"
         height="6000"
         rx="0.000000"
         id="rect7061" />
    </g>
    <g
       style="fill:#840000;fill-opacity:0;stroke:#840000;stroke-width:60;stroke-linecap:round;stroke-linejoin:round;stroke-opacity:1"
       id="g7067">
      <path
         d="M 19000,10000 H 18000"
         id="path7065" />
    </g>
    <g
       style="fill:#008484;fill-opacity:0;stroke:#008484;stroke-width:60;stroke-linecap:round;stroke-linejoin:round;stroke-opacity:1"
       id="g7079">
      <text
         x="19200"
         y="10250"
         textLength="821.88977"
         font-size="666.654px"
         lengthAdjust="spacingAndGlyphs"
         text-anchor="start"
         opacity="0"
         id="text7069">IN</text>
      <g
         class="stroked-text"
         id="g7077">
        <desc
           id="desc7071">IN</desc>
        <path
           d="M 19349,10226 V 9726"
           id="path7073" />
        <path
           d="m 19587,10226 v -500 l 285,500 v -500"
           id="path7075" />
      </g>
    </g>
    <g
       style="fill:#840000;fill-opacity:0;stroke:#840000;stroke-width:60;stroke-linecap:round;stroke-linejoin:round;stroke-opacity:1"
       id="g7083">
      <path
         d="m 25000,10000 h 1000"
         id="path7081" />
    </g>
    <g
       style="fill:#008484;fill-opacity:0;stroke:#008484;stroke-width:60;stroke-linecap:round;stroke-linejoin:round;stroke-opacity:1"
       id="g7189">
      <text
         x="24800"
         y="10250"
         textLength="1488.5826"
         font-size="666.654px"
         lengthAdjust="spacingAndGlyphs"
         text-anchor="end"
         opacity="0"
         id="text7085">OUT</text>
      <g
         class="stroked-text"
         id="g7097">
        <desc
           id="desc7087">OUT</desc>
        <path
           d="m 23555,9726 h 95 l 48,24 48,47 24,95 v 167 l -24,95 -48,48 -48,24 h -95 l -47,-24 -48,-48 -24,-95 v -167 l 24,-95 48,-47 47,-24"
           id="path7089" />
        <path
           d="m 23984,9726 v 404 l 24,48 23,24 48,24 h 95 l 48,-24 24,-24 24,-48 v -404"
           id="path7091" />
        <path
           d="m 24436,9726 h 286"
           id="path7093" />
        <path
           d="M 24579,10226 V 9726"
           id="path7095" />
      </g>
      <text
         x="22000"
         y="14249.961"
         textLength="9607.6377"
         font-size="666.654px"
         lengthAdjust="spacingAndGlyphs"
         text-anchor="middle"
         opacity="0"
         id="text7099">Amplifying Current Mirror</text>
      <g
         class="stroked-text"
         id="g7187">
        <desc
           id="desc7101">Amplifying Current Mirror</desc>
        <path
           d="m 17321,14083 h 238"
           id="path7103" />
        <path
           d="m 17273,14226 167,-500 167,500"
           id="path7105" />
        <path
           d="m 17773,14226 v -334"
           id="path7107" />
        <path
           d="m 17773,13940 24,-24 48,-24 h 71 l 48,24 24,48 v 262"
           id="path7109" />
        <path
           d="m 17988,13964 23,-48 48,-24 h 71 l 48,24 24,48 v 262"
           id="path7111" />
        <path
           d="m 18440,13892 v 500"
           id="path7113" />
        <path
           d="m 18440,13916 48,-24 h 95 l 47,24 24,24 24,48 v 142 l -24,48 -24,24 -47,24 h -95 l -48,-24"
           id="path7115" />
        <path
           d="m 18964,14226 -48,-24 -24,-48 v -428"
           id="path7117" />
        <path
           d="m 19154,14226 v -334"
           id="path7119" />
        <path
           d="m 19154,13726 -24,23 24,24 24,-24 -24,-23 v 47"
           id="path7121" />
        <path
           d="m 19321,13892 h 190"
           id="path7123" />
        <path
           d="m 19392,14226 v -429 l 24,-48 48,-23 h 47"
           id="path7125" />
        <path
           d="m 19630,13892 120,334"
           id="path7127" />
        <path
           d="m 19869,13892 -119,334 -48,119 -24,23 -48,24"
           id="path7129" />
        <path
           d="m 20059,14226 v -334"
           id="path7131" />
        <path
           d="m 20059,13726 -24,23 24,24 24,-24 -24,-23 v 47"
           id="path7133" />
        <path
           d="m 20297,13892 v 334"
           id="path7135" />
        <path
           d="m 20297,13940 24,-24 48,-24 h 71 l 48,24 23,48 v 262"
           id="path7137" />
        <path
           d="m 20964,13892 v 405 l -24,48 -24,23 -47,24 h -72 l -47,-24"
           id="path7139" />
        <path
           d="m 20964,14202 -48,24 h -95 l -48,-24 -23,-24 -24,-48 v -142 l 24,-48 23,-24 48,-24 h 95 l 48,24"
           id="path7141" />
        <path
           d="m 21869,14178 -24,24 -72,24 h -47 l -72,-24 -47,-48 -24,-47 -24,-96 v -71 l 24,-95 24,-48 47,-48 72,-23 h 47 l 72,23 24,24"
           id="path7143" />
        <path
           d="m 22297,13892 v 334"
           id="path7145" />
        <path
           d="m 22083,13892 v 262 l 24,48 47,24 h 72 l 47,-24 24,-24"
           id="path7147" />
        <path
           d="m 22535,14226 v -334"
           id="path7149" />
        <path
           d="m 22535,13988 24,-48 24,-24 47,-24 h 48"
           id="path7151" />
        <path
           d="m 22845,14226 v -334"
           id="path7153" />
        <path
           d="m 22845,13988 24,-48 23,-24 48,-24 h 48"
           id="path7155" />
        <path
           d="m 23345,14202 -48,24 h -95 l -48,-24 -24,-48 v -190 l 24,-48 48,-24 h 95 l 48,24 24,48 v 47 l -239,48"
           id="path7157" />
        <path
           d="m 23583,13892 v 334"
           id="path7159" />
        <path
           d="m 23583,13940 24,-24 47,-24 h 72 l 47,24 24,48 v 262"
           id="path7161" />
        <path
           d="m 23964,13892 h 190"
           id="path7163" />
        <path
           d="m 24035,13726 v 428 l 24,48 48,24 h 47"
           id="path7165" />
        <path
           d="m 24702,14226 v -500 l 167,357 166,-357 v 500"
           id="path7167" />
        <path
           d="m 25273,14226 v -334"
           id="path7169" />
        <path
           d="m 25273,13726 -23,23 23,24 24,-24 -24,-23 v 47"
           id="path7171" />
        <path
           d="m 25511,14226 v -334"
           id="path7173" />
        <path
           d="m 25511,13988 24,-48 24,-24 48,-24 h 47"
           id="path7175" />
        <path
           d="m 25821,14226 v -334"
           id="path7177" />
        <path
           d="m 25821,13988 24,-48 24,-24 47,-24 h 48"
           id="path7179" />
        <path
           d="m 26202,14226 -48,-24 -24,-24 -23,-48 v -142 l 23,-48 24,-24 48,-24 h 71 l 48,24 24,24 24,48 v 142 l -24,48 -24,24 -48,24 h -71"
           id="path7181" />
        <path
           d="m 26583,14226 v -334"
           id="path7183" />
        <path
           d="m 26583,13988 24,-48 23,-24 48,-24 h 48"
           id="path7185" />
      </g>
    </g>
  </g>
  <g
     style="fill:#008484;fill-opacity:0;stroke:#008484;stroke-width:60;stroke-linecap:round;stroke-linejoin:round;stroke-opacity:1"
     id="g7205"
     transform="translate(-8973.7779,-6950)">
    <g
       id="g7193" />
    <g
       style="fill:#840000;fill-opacity:0;stroke:#840000;stroke-width:60;stroke-linecap:round;stroke-linejoin:round;stroke-opacity:1"
       id="g7203">
      <path
         style="fill:none;fill-opacity:0;stroke:#840000;stroke-width:60;stroke-linecap:round;stroke-linejoin:round;stroke-opacity:1"
         d="m 13250,24250 h 500"
         id="path7195" />
      <path
         style="fill:none;fill-opacity:0;stroke:#840000;stroke-width:60;stroke-linecap:round;stroke-linejoin:round;stroke-opacity:1"
         d="m 13450,24500 h 100"
         id="path7197" />
      <path
         style="fill:none;fill-opacity:0;stroke:#840000;stroke-width:60;stroke-linecap:round;stroke-linejoin:round;stroke-opacity:1"
         d="m 13500,24000 v -500"
         id="path7199" />
      <path
         style="fill:none;fill-opacity:0;stroke:#840000;stroke-width:60;stroke-linecap:round;stroke-linejoin:round;stroke-opacity:1"
         d="M 14000,24000 H 13000"
         id="path7201" />
    </g>
  </g>
  <g
     style="fill:#840000;fill-opacity:0;stroke:#840000;stroke-width:60;stroke-linecap:round;stroke-linejoin:round;stroke-opacity:1"
     id="g7233"
     transform="translate(-8973.7779,-6950)">
    <g
       id="g7207" />
    <g
       style="fill:#840000;fill-opacity:0;stroke:#840000;stroke-width:100;stroke-linecap:round;stroke-linejoin:round;stroke-opacity:1"
       id="g7211">
      <rect
         x="13100"
         y="18500"
         width="800"
         height="2000"
         rx="0.000000"
         id="rect7209" />
    </g>
    <g
       style="fill:#840000;fill-opacity:0;stroke:#840000;stroke-width:60;stroke-linecap:round;stroke-linejoin:round;stroke-opacity:1"
       id="g7217">
      <path
         d="m 13500,18500 v -500"
         id="path7213" />
      <path
         d="m 13500,20500 v 500"
         id="path7215" />
    </g>
    <g
       style="fill:#008484;fill-opacity:0;stroke:#008484;stroke-width:60;stroke-linecap:round;stroke-linejoin:round;stroke-opacity:1"
       id="g7231">
      <text
         x="14643.149"
         y="19749.961"
         textLength="883.81891"
         font-size="666.654px"
         lengthAdjust="spacingAndGlyphs"
         text-anchor="middle"
         opacity="0"
         id="text7219">R_{s}</text>
      <g
         class="stroked-text"
         id="g7229">
        <desc
           id="desc7221">R_{s}</desc>
        <path
           d="m 14635,19726 -166,-238"
           id="path7223" />
        <path
           d="m 14350,19726 v -500 h 190 l 48,23 24,24 23,48 v 71 l -23,48 -24,24 -48,24 h -190"
           id="path7225" />
        <path
           d="m 14807,19761 38,19 h 76 l 38,-19 19,-38 v -19 l -19,-38 -38,-19 h -57 l -38,-19 -19,-38 v -19 l 19,-38 38,-19 h 57 l 38,19"
           id="path7227" />
      </g>
    </g>
  </g>
  <g
     style="fill:#008484;fill-opacity:0;stroke:#008484;stroke-width:62.5197;stroke-linecap:round;stroke-linejoin:round;stroke-opacity:1"
     id="g7235"
     transform="translate(-8973.7779,-6950)" />
  <g
     style="fill:#008484;fill-opacity:0;stroke:#008484;stroke-width:60;stroke-linecap:round;stroke-linejoin:round;stroke-opacity:1"
     id="g7237"
     transform="translate(-8973.7779,-6950)" />
  <g
     style="fill:#0000c2;fill-opacity:0;stroke:#0000c2;stroke-width:60;stroke-linecap:round;stroke-linejoin:round;stroke-opacity:1"
     id="g7257"
     transform="translate(-8973.7779,-6950)">
    <text
       x="35500"
       y="14897.48"
       textLength="1440.9448"
       font-size="666.654px"
       lengthAdjust="spacingAndGlyphs"
       text-anchor="start"
       opacity="0"
       id="text7239">V_{out}</text>
    <g
       class="stroked-text"
       id="g7255">
      <desc
         id="desc7241">V_{out}</desc>
      <path
         d="m 35577,14373 167,500 166,-500"
         id="path7243" />
      <path
         d="m 36110,14928 -38,-19 -19,-19 -19,-38 v -115 l 19,-38 19,-19 38,-19 h 58 l 38,19 19,19 19,38 v 115 l -19,38 -19,19 -38,19 h -58"
         id="path7245" />
      <path
         d="m 36587,14661 v 267"
         id="path7247" />
      <path
         d="m 36415,14661 v 210 l 19,38 38,19 h 58 l 38,-19 19,-19"
         id="path7249" />
      <path
         d="m 36720,14661 h 152"
         id="path7251" />
      <path
         d="m 36777,14528 v 343 l 19,38 38,19 h 38"
         id="path7253" />
    </g>
  </g>
  <g
     style="fill:#0000c2;fill-opacity:0;stroke:#0000c2;stroke-width:62.5197;stroke-linecap:round;stroke-linejoin:round;stroke-opacity:1"
     id="g7259"
     transform="translate(-8973.7779,-6950)" />
  <g
     style="fill:#0000c2;fill-opacity:0;stroke:#0000c2;stroke-width:60;stroke-linecap:round;stroke-linejoin:round;stroke-opacity:1"
     id="g7277"
     transform="translate(-8973.7779,-6950)">
    <text
       x="9000"
       y="14897.48"
       textLength="1040.9448"
       font-size="666.654px"
       lengthAdjust="spacingAndGlyphs"
       text-anchor="start"
       opacity="0"
       id="text7261">V_{in}</text>
    <g
       class="stroked-text"
       id="g7275">
      <desc
         id="desc7263">V_{in}</desc>
      <path
         d="m 9077,14373 167,500 166,-500"
         id="path7265" />
      <path
         d="m 9553,14928 v -267"
         id="path7267" />
      <path
         d="m 9553,14528 -19,19 19,19 19,-19 -19,-19 v 38"
         id="path7269" />
      <path
         d="m 9744,14661 v 267"
         id="path7271" />
      <path
         d="m 9744,14699 19,-19 38,-19 h 57 l 38,19 19,38 v 210"
         id="path7273" />
    </g>
  </g>
  <g
     style="fill:#0000c2;fill-opacity:0;stroke:#0000c2;stroke-width:62.5197;stroke-linecap:round;stroke-linejoin:round;stroke-opacity:1"
     id="g7279"
     transform="translate(-8973.7779,-6950)" />
  <g
     style="fill:#0000c2;fill-opacity:0;stroke:#0000c2;stroke-width:60;stroke-linecap:round;stroke-linejoin:round;stroke-opacity:1"
     id="g7293"
     transform="translate(-8973.7779,-6950)">
    <text
       x="14500"
       y="12397.48"
       textLength="660"
       font-size="666.654px"
       lengthAdjust="spacingAndGlyphs"
       text-anchor="start"
       opacity="0"
       id="text7281">I_{a}</text>
    <g
       class="stroked-text"
       id="g7291">
      <desc
         id="desc7283">I_{a}</desc>
      <path
         d="m 14649,12373 v -500"
         id="path7285" />
      <path
         d="m 15034,12428 v -210 l -19,-38 -38,-19 h -76 l -38,19"
         id="path7287" />
      <path
         d="m 15034,12409 -38,19 h -95 l -38,-19 -19,-38 v -38 l 19,-38 38,-19 h 95 l 38,-20"
         id="path7289" />
    </g>
  </g>
  <g
     style="fill:#0000c2;fill-opacity:0;stroke:#0000c2;stroke-width:73.7402;stroke-linecap:round;stroke-linejoin:round;stroke-opacity:1"
     id="g7295"
     transform="translate(-8973.7779,-6950)" />
  <g
     style="fill:#0000c2;fill-opacity:0;stroke:#0000c2;stroke-width:60;stroke-linecap:round;stroke-linejoin:round;stroke-opacity:1"
     id="g7323"
     transform="translate(-8973.7779,-6950)">
    <text
       x="20500"
       y="8879.0547"
       textLength="3319.0552"
       font-size="786.654px"
       lengthAdjust="spacingAndGlyphs"
       text-anchor="start"
       opacity="0"
       id="text7297">Gain=B</text>
    <g
       class="stroked-text"
       id="g7321">
      <desc
         id="desc7299">Gain=B</desc>
      <path
         d="m 20979,8289 -56,-29 h -84 l -85,29 -56,56 -28,56 -28,112 v 85 l 28,112 28,56 56,56 85,28 h 56 l 84,-28 28,-28 v -196 h -112"
         id="path7301" />
      <path
         d="m 21513,8850 v -309 l -28,-56 -56,-28 h -113 l -56,28"
         id="path7303" />
      <path
         d="m 21513,8822 -56,28 h -141 l -56,-28 -28,-56 v -56 l 28,-56 56,-28 h 141 l 56,-28"
         id="path7305" />
      <path
         d="M 21794,8850 V 8457"
         id="path7307" />
      <path
         d="m 21794,8260 -28,29 28,28 28,-28 -28,-29 v 57"
         id="path7309" />
      <path
         d="m 22075,8457 v 393"
         id="path7311" />
      <path
         d="m 22075,8513 28,-28 56,-28 h 84 l 57,28 28,56 v 309"
         id="path7313" />
      <path
         d="m 22609,8541 h 449"
         id="path7315" />
      <path
         d="m 23058,8710 h -449"
         id="path7317" />
      <path
         d="m 23536,8541 84,29 28,28 28,56 v 84 l -28,56 -28,28 -56,28 h -225 v -590 h 197 l 56,29 28,28 28,56 v 56 l -28,56 -28,28 -56,28 h -197"
         id="path7319" />
    </g>
  </g>
  <g
     style="fill:#0000c2;fill-opacity:0;stroke:#0000c2;stroke-width:62.5197;stroke-linecap:round;stroke-linejoin:round;stroke-opacity:1"
     id="g7325"
     transform="translate(-8973.7779,-6950)" />
  <g
     style="fill:#0000c2;fill-opacity:0;stroke:#0000c2;stroke-width:60;stroke-linecap:round;stroke-linejoin:round;stroke-opacity:1"
     id="g7345"
     transform="translate(-8973.7779,-6950)">
    <text
       x="29500"
       y="11897.48"
       textLength="2326.6536"
       font-size="666.654px"
       lengthAdjust="spacingAndGlyphs"
       text-anchor="start"
       opacity="0"
       id="text7327">B x I_{a}</text>
    <g
       class="stroked-text"
       id="g7343">
      <desc
         id="desc7329">B x I_{a}</desc>
      <path
         d="m 29815,11611 72,24 23,24 24,47 v 72 l -24,48 -23,23 -48,24 h -190 v -500 h 166 l 48,24 24,24 23,47 v 48 l -23,48 -24,23 -48,24 h -166"
         id="path7331" />
      <path
         d="m 30482,11873 262,-333"
         id="path7333" />
      <path
         d="m 30482,11540 262,333"
         id="path7335" />
      <path
         d="m 31315,11873 v -500"
         id="path7337" />
      <path
         d="m 31701,11928 v -210 l -19,-38 -38,-19 h -76 l -38,19"
         id="path7339" />
      <path
         d="m 31701,11909 -38,19 h -95 l -38,-19 -20,-38 v -38 l 20,-38 38,-19 h 95 l 38,-20"
         id="path7341" />
    </g>
  </g>
  <g
     style="fill:#0000c2;fill-opacity:0;stroke:#0000c2;stroke-width:62.5197;stroke-linecap:round;stroke-linejoin:round;stroke-opacity:1"
     id="g7347"
     transform="translate(-8973.7779,-6950)" />
  <g
     style="fill:#0000c2;fill-opacity:0;stroke:#0000c2;stroke-width:60;stroke-linecap:round;stroke-linejoin:round;stroke-opacity:1"
     id="g7361"
     transform="translate(-8973.7779,-6950)">
    <text
       x="25500"
       y="17397.48"
       textLength="526.65356"
       font-size="666.654px"
       lengthAdjust="spacingAndGlyphs"
       text-anchor="start"
       opacity="0"
       id="text7349">I_{f}</text>
    <g
       class="stroked-text"
       id="g7359">
      <desc
         id="desc7351">I_{f}</desc>
      <path
         d="m 25649,17373 v -500"
         id="path7353" />
      <path
         d="m 25806,17161 h 152"
         id="path7355" />
      <path
         d="m 25863,17428 v -343 l 19,-38 38,-19 h 38"
         id="path7357" />
    </g>
  </g>
  <g
     style="fill:#008400;fill-opacity:0;stroke:#008400;stroke-width:60;stroke-linecap:round;stroke-linejoin:round;stroke-opacity:1"
     id="g7391"
     transform="translate(-8973.7779,-6950)">
    <path
       d="m 23500,16000 h 5500"
       id="path7363" />
    <path
       d="m 15500,10000 v 6000"
       id="path7365" />
    <path
       d="m 15500,16000 h 5000"
       id="path7367" />
    <path
       d="m 15500,10000 h 2500"
       id="path7369" />
    <path
       d="m 29000,16000 h 2500"
       id="path7371" />
    <path
       d="m 31500,16000 h 4500"
       id="path7373" />
    <path
       d="M 13500,18000 V 16000"
       id="path7375" />
    <path
       d="m 13500,21000 v 2500"
       id="path7377" />
    <path
       d="M 13500,16000 H 9500"
       id="path7379" />
    <path
       d="M 15500,16000 H 13500"
       id="path7381" />
    <path
       d="m 31500,16000 v 2000"
       id="path7383" />
    <path
       d="m 31500,21000 v 3000"
       id="path7385" />
    <path
       d="M 29000,10000 H 26000"
       id="path7387" />
    <path
       d="m 29000,10000 v 6000"
       id="path7389" />
  </g>
  <g
     style="fill:#008400;fill-opacity:1;stroke:#008400;stroke-width:60;stroke-linecap:round;stroke-linejoin:round;stroke-opacity:1"
     id="g7401"
     transform="translate(-8973.7779,-6950)">
    <circle
       cx="29000"
       cy="16000"
       r="180"
       id="circle7393" />
    <circle
       cx="31500"
       cy="16000"
       r="180"
       id="circle7395" />
    <circle
       cx="15500"
       cy="16000"
       r="180"
       id="circle7397" />
    <circle
       cx="13500"
       cy="16000"
       r="180"
       id="circle7399" />
  </g>
  <metadata
     id="metadata1155">
    <rdf:RDF>
      <cc:Work
         rdf:about="">
        <dc:title>Audio Amplifier Design Figure 7</dc:title>
        <dc:creator>
          <cc:Agent>
            <dc:title>John Howard, www.robinet.co.uk</dc:title>
          </cc:Agent>
        </dc:creator>
        <cc:license
           rdf:resource="http://creativecommons.org/licenses/by-nc-sa/4.0/" />
      </cc:Work>
      <cc:License
         rdf:about="http://creativecommons.org/licenses/by-nc-sa/4.0/">
        <cc:permits
           rdf:resource="http://creativecommons.org/ns#Reproduction" />
        <cc:permits
           rdf:resource="http://creativecommons.org/ns#Distribution" />
        <cc:requires
           rdf:resource="http://creativecommons.org/ns#Notice" />
        <cc:requires
           rdf:resource="http://creativecommons.org/ns#Attribution" />
        <cc:prohibits
           rdf:resource="http://creativecommons.org/ns#CommercialUse" />
        <cc:permits
           rdf:resource="http://creativecommons.org/ns#DerivativeWorks" />
        <cc:requires
           rdf:resource="http://creativecommons.org/ns#ShareAlike" />
      </cc:License>
    </rdf:RDF>
  </metadata>
</svg>
